<svg xmlns="http://www.w3.org/2000/svg" xmlns:svgjs="http://svgjs.com/svgjs" xmlns:xlink="http://www.w3.org/1999/xlink" width="288" height="288"><svg xmlns="http://www.w3.org/2000/svg" width="288" height="288" fill="none" viewBox="0 0 174 173"><path fill="#6b320a" d="M131.893 151.4V143.604H139.689V138.198H131.893V130.48H126.486V138.198H118.693V143.604H126.486V151.4H131.893zM112.349 74.9873C110.859 75.0903 109.568 73.966 109.465 72.4761L109.001 65.7615C108.898 64.2716 110.022 62.9803 111.512 62.8773 113.002 62.7743 114.293 63.8986 114.396 65.3885L114.86 72.1031C114.963 73.593 113.839 74.8843 112.349 74.9873zM112.701 82.3612C114.191 82.2642 115.477 83.3934 115.574 84.8833L116.905 105.313C117.002 106.803 115.873 108.089 114.383 108.186 112.893 108.283 111.606 107.154 111.509 105.664L110.179 85.2347C110.082 83.7448 111.211 82.4583 112.701 82.3612z" class="color008248 svgShape"/><path fill="#000" fill-opacity=".58" d="M130.362 117.644L125.456 42.878H107.772V39.7586C107.772 22.6343 93.8755 8.70508 76.7971 8.70508C59.6755 8.70508 45.7436 22.6343 45.7436 39.7586V42.878H28.0598L24.2916 100.498L29.6871 100.852L33.1227 48.2869H45.7409V55.4664H51.1472V48.2869H102.366V55.4664H107.772V48.2869H120.39L124.964 117.992C114.998 119.836 107.242 128.021 106.058 138.201H27.1921L29.1491 108.288L23.7537 107.934L21.4209 143.605H106.058C107.399 155.233 117.26 164.292 129.205 164.292C133.984 164.292 138.572 162.853 142.475 160.129L139.38 155.693C136.39 157.78 132.871 158.885 129.203 158.885C119.328 158.885 111.294 150.819 111.294 140.901C111.294 131.027 119.328 122.993 129.203 122.993C139.12 122.993 147.189 131.027 147.189 140.901C147.189 144.548 146.078 148.1 143.981 151.179L148.446 154.225C151.16 150.246 152.595 145.637 152.595 140.901C152.598 128.435 142.721 118.252 130.362 117.644ZM51.1472 42.878V39.7586C51.1472 25.6185 62.6517 14.1113 76.7944 14.1113C90.8939 14.1113 102.363 25.6185 102.363 39.7586V42.878H51.1472Z" class="color000 svgShape"/><path fill="#6b320a" fill-rule="evenodd" d="M98.7095 85.2702C99.9995 84.1942 99.7098 83.2606 98.0653 83.1858L85.4037 82.605L80.961 70.143C80.673 69.3324 80.2964 68.9279 79.9181 68.9279C79.9181 68.9279 79.3557 68.8834 78.9007 70.118C78.4457 71.3526 77.7061 73.4228 77.7061 73.4228L74.4342 82.605L61.7725 83.184C60.1263 83.2606 59.8366 84.1942 61.1249 85.2702L71.0447 93.5527L67.6586 106.373C67.2189 108.039 67.9755 108.618 69.3491 107.663L79.9181 100.319L90.4871 107.663C91.8606 108.616 92.6172 108.039 92.1776 106.373L88.7915 93.5527L98.7095 85.2702Z" class="color008248 svgShape" clip-rule="evenodd"/></svg></svg>